<svg aria-hidden="true" style="position: absolute; width: 0; height: 0; overflow: hidden;" version="1.1" xmlns="http://www.w3.org/2000/svg" xmlns:xlink="http://www.w3.org/1999/xlink">
  <defs>

    <symbol id="icon-search" viewBox="0 0 32 32">
    <title>icon-search</title>
    <path d="M31.609 29.724l-9.1-9.1c1.763-2.177 2.824-4.944 2.824-7.957 0-6.984-5.683-12.667-12.667-12.667s-12.667 5.683-12.667 12.667 5.683 12.667 12.667 12.667c3.013 0 5.78-1.061 7.957-2.824l9.1 9.1c0.26 0.26 0.601 0.391 0.943 0.391s0.683-0.131 0.943-0.391c0.521-0.521 0.521-1.364-0-1.885zM12.667 22.667c-5.515 0-10-4.485-10-10s4.485-10 10-10 10 4.485 10 10-4.485 10-10 10z"></path>
    </symbol>

    <symbol id="icon-shop" viewBox="0 0 32 32">
    <title>icon-shop</title>
    <path d="M25.253 23.955h-12.844l-0.794-3.175h16.785l3.599-14.397h-23.984l-1.265-5.060h-6.751v1.885h5.28l5.206 20.823c-1.515 0.325-2.655 1.675-2.655 3.286 0 1.854 1.508 3.361 3.361 3.361s3.361-1.508 3.361-3.361c0-0.529-0.123-1.031-0.342-1.477h8.024c-0.219 0.446-0.343 0.947-0.343 1.477 0 1.854 1.508 3.361 3.361 3.361s3.361-1.508 3.361-3.361c-0-1.854-1.508-3.361-3.361-3.361zM8.488 8.267h21.098l-2.657 10.627h-15.784l-2.657-10.627zM11.192 28.793c-0.814 0-1.477-0.662-1.477-1.477s0.662-1.477 1.477-1.477 1.477 0.662 1.477 1.477c0 0.814-0.662 1.477-1.477 1.477zM25.253 28.793c-0.814 0-1.477-0.662-1.477-1.477s0.662-1.477 1.477-1.477 1.477 0.662 1.477 1.477c-0 0.814-0.662 1.477-1.477 1.477z"></path>
    </symbol>

    <symbol id="icon-facebook" viewBox="0 0 32 32">
    <title>icon-facebook</title>
    <path d="M21.329 5.313h2.921v-5.088c-0.504-0.069-2.237-0.225-4.256-0.225-4.212 0-7.097 2.649-7.097 7.519v4.481h-4.648v5.688h4.648v14.312h5.699v-14.311h4.46l0.708-5.688h-5.169v-3.919c0.001-1.644 0.444-2.769 2.735-2.769z"></path>
    </symbol>

    <symbol id="icon-instagram" viewBox="0 0 32 32">
    <title>icon-instagram</title>
    <path d="M4.109 0.001h23.784c2.26 0 4.107 1.848 4.107 4.108v23.784c0 2.259-1.847 4.106-4.107 4.106h-23.784c-2.26 0-4.109-1.847-4.109-4.106v-23.784c0-2.26 1.849-4.108 4.109-4.108zM23.312 3.555c-0.793 0-1.441 0.65-1.441 1.443v3.447c0 0.793 0.647 1.441 1.441 1.441h3.616c0.792 0 1.441-0.648 1.441-1.441v-3.447c0-0.793-0.649-1.443-1.441-1.443h-3.616zM28.382 13.533h-2.816c0.267 0.872 0.412 1.792 0.412 2.748 0 5.321-4.455 9.636-9.948 9.636-5.492 0-9.947-4.316-9.947-9.636 0-0.956 0.146-1.876 0.412-2.748h-2.938v13.518c0 0.7 0.572 1.27 1.271 1.27h22.283c0.7 0 1.27-0.57 1.27-1.27v-13.518zM16.030 9.704c-3.548 0-6.426 2.787-6.426 6.228 0 3.438 2.878 6.227 6.426 6.227 3.55 0 6.428-2.789 6.428-6.227 0-3.441-2.878-6.228-6.428-6.228z"></path>
    </symbol>

    <symbol id="icon-pinterest" viewBox="0 0 32 32">
    <title>icon-pinterest</title>
    <path d="M16.435 0c-8.772 0.001-13.435 5.621-13.435 11.749 0 2.841 1.588 6.387 4.131 7.511 0.725 0.327 0.629-0.072 1.253-2.459 0.049-0.199 0.024-0.371-0.136-0.556-3.635-4.204-0.709-12.847 7.668-12.847 12.124 0 9.859 16.776 2.109 16.776-1.997 0-3.485-1.568-3.015-3.508 0.571-2.311 1.688-4.795 1.688-6.46 0-4.197-6.253-3.575-6.253 1.987 0 1.719 0.608 2.879 0.608 2.879s-2.012 8.128-2.385 9.647c-0.632 2.571 0.085 6.732 0.148 7.091 0.039 0.197 0.26 0.26 0.384 0.097 0.199-0.26 2.631-3.729 3.312-6.237 0.248-0.913 1.265-4.62 1.265-4.62 0.671 1.211 2.604 2.224 4.664 2.224 6.128 0 10.557-5.387 10.557-12.071-0.021-6.408-5.505-11.203-12.564-11.203z"></path>
    </symbol>

    <symbol id="icon-twitter" viewBox="0 0 32 32">
    <title>icon-twitter</title>
    <path d="M32 6.078c-1.19 0.522-2.458 0.868-3.78 1.036 1.36-0.812 2.398-2.088 2.886-3.626-1.268 0.756-2.668 1.29-4.16 1.588-1.204-1.282-2.92-2.076-4.792-2.076-3.632 0-6.556 2.948-6.556 6.562 0 0.52 0.044 1.020 0.152 1.496-5.454-0.266-10.28-2.88-13.522-6.862-0.566 0.982-0.898 2.106-0.898 3.316 0 2.272 1.17 4.286 2.914 5.452-1.054-0.020-2.088-0.326-2.964-0.808 0 0.020 0 0.046 0 0.072 0 3.188 2.274 5.836 5.256 6.446-0.534 0.146-1.116 0.216-1.72 0.216-0.42 0-0.844-0.024-1.242-0.112 0.85 2.598 3.262 4.508 6.13 4.57-2.232 1.746-5.066 2.798-8.134 2.798-0.538 0-1.054-0.024-1.57-0.090 2.906 1.874 6.35 2.944 10.064 2.944 12.072 0 18.672-10 18.672-18.668 0-0.29-0.010-0.57-0.024-0.848 1.302-0.924 2.396-2.078 3.288-3.406z"></path>
    </symbol>

  </defs>
</svg>
